<svg version="1.0" xmlns="http://www.w3.org/2000/svg" width="456" height="456" viewBox="0 0 342 342"><path d="M213 60.6c-8.8 1.2-17.7 3-23 4.6-8.3 2.6-26.7 11.3-29 13.8-.3.3-2.1 1.7-4 3-3.8 2.7-4.4 3.2-11.8 10.2-2.7 2.7-4.8 4.8-4.6 4.8.2 0-.9 1.4-2.6 3.2-6.6 6.8-18.6 28.1-19.4 34.3-.1.5-.5 1.5-.8 2.1-.4.6-.9 2.1-1.1 3.5-.3 1.3-1 4.2-1.6 6.4-1.1 4.1-2.4 13.3-2.5 17.2 0 1.3-.4 2.3-1 2.3-.5 0-.7.3-.3.6 1.8 1.8-11.7 29-15.7 31.6-.6.4-.8.8-.4.8.8 0-8 9.7-13 14.4-15.2 14-40 25.3-59.9 27.3-2.8.2-7.6.5-10.7.6-4.8.2-5.6.5-5.7 2.2-.5 8.2-.3 34.3.3 35.6.7 1.7 4.8 1.8 16.3.4 28-3.2 55.7-18.7 72.5-40.5 1.9-2.5 4-5.1 4.7-5.8.6-.6 1.5-2.1 1.8-3.2.3-1.1 1.1-2 1.6-2 .6 0 .8-.4.4-.9-.3-.5-.1-1.3.5-1.6 1.5-.9 7.7-14.5 9.6-21.1.9-3.1 1.7-5.4 1.9-5.2.2.2 1.4 3.2 2.8 6.8 5.4 14.4 10.2 22.9 18.8 33.5 13.6 16.8 29.6 28 50.4 35.2 37.5 12.9 81.3 3.2 110.1-24.5 18.8-18 28.5-36.5 33.7-63.9.8-4 1-7 .5-6.7-.4.3-.4-.5 0-1.8.7-1.9.8-14.2.2-15.8-.1-.3-.3-2.3-.4-4.5-.2-2.2-.9-6.7-1.6-10-.8-3.3-1.4-6.3-1.4-6.7-.1-.3-.4-1-.8-1.4-.5-.4-.8-1.6-.8-2.6s-.4-2.6-.9-3.6c-1.7-3.4-4.4-9.7-4.7-10.8-.1-.6-1.4-2.9-2.8-5.2-1.4-2.3-2.6-4.4-2.6-4.8 0-.3-.6-1.2-1.2-1.9-2.9-3.3-3.8-4.5-3.3-4.5.3 0-.3-1-1.5-2.3-1.1-1.2-4.6-5.1-7.7-8.5-13.7-15.3-37.1-28.5-56.7-32.3-2.8-.5-6.4-1.2-8.1-1.5-3-.6-21.7-1.2-24.5-.8zm24 7.9c12.6 1.8 27.5 7.2 38.5 13.8 15.9 9.6 31 26.1 39.2 42.7 3.2 6.5 8 20.3 7.7 22.3-.1.9.1 1.7.6 1.7.4 0 .7 1.4.6 3.1-.1 1.6.1 3.2.5 3.4.7.5 1.2 7.1 1 16.5-.1 6-.8 14.5-1.1 14.5-.1 0-.3 1.3-.5 3-.2 1.6-.7 4.1-1.1 5.5-.4 1.4-.8 2.8-.9 3.2-.2.5-.3.9-.4 1-.2.2-.4 1.3-.7 2.6-.2 1.3-1 3.3-1.6 4.5-.7 1.2-1.1 2.8-1 3.4.2.7-.2 1.3-.8 1.3-.5 0-1 .6-1 1.3 0 1.9-2.4 6.7-3.3 6.7-.5 0-.5.4-.2 1 .3.5.1 1-.5 1s-.9.4-.6.9c.4.5.3 1.1-.1 1.3-.5.1-2.6 3-4.8 6.3-4.4 6.5-14.7 17.3-21 22-2.2 1.7-4.5 3.5-5.2 4.1-2.1 2-18.6 10.1-24.8 12.2-9.6 3.3-22 5.2-34.2 5.3-6.2 0-11.6-.2-12-.4-.5-.3-3-.8-5.8-1.1-7.1-1-21.7-6-29.4-10.2-18.6-10.1-34.8-26.9-44.4-45.9-2.3-4.7-5.5-13-6.2-16.5-.2-.8-.4-1.6-.5-1.8-.4-.4-2-8.5-2.7-13.2-1.4-9.4-.4-29.2 1.8-37.5.6-2.2 1.2-4.5 1.3-5 .1-.6.7-2.4 1.3-4 .6-1.7 1.5-3.9 1.9-5 .4-1.1.8-2.2.9-2.5.6-2.3 8.3-15.7 11.7-20.5 4.1-5.7 16.3-17.9 21.2-21.2 2.2-1.5 4.6-3.3 5.3-4 2.9-2.7 22.5-11.5 29.8-13.3 14-3.5 28.7-4.4 41.5-2.5zM109.6 192.7c-.2 1.6-.5 2.8-.6 2.8-.1 0-.4 1.3-.6 3-.3 1.6-.9 3.4-1.5 3.9-.5.6-.9 1.6-.9 2.4 0 2.4-6.6 15.6-11.4 22.9C89.9 234.8 76 250 74.2 250c-.6 0-1.2.4-1.4.8-1.5 3.9-25.3 16.1-37.4 19.1-11.3 2.9-22.4 3.8-22.5 2-.1-1.7-.1-19.8 0-22 .1-1.2 1.4-1.6 5.4-1.8 2.8-.1 7-.6 9.2-1.1 2.2-.5 5.6-1.2 7.5-1.5 12.8-2.2 32.6-11.5 44.5-20.8 8.5-6.6 13.3-11.4 22.5-22.6.8-1.1 2.9-4.2 4.5-7 1.7-2.8 3.1-5.1 3.3-5.1.1 0 .1 1.2-.2 2.7z"/><path d="M213.2 78.1c-5.9 2.8-10.5 8-11.9 13.2-1 3.8-.5 13.2.9 15.8 5.5 10.6 17 15.3 27.7 11.4 4.8-1.8 11.4-7.2 10.5-8.7-.3-.4-.1-.8.4-.8 1.3 0 3.5-5.6 2.8-6.9-.4-.5-.2-1.2.3-1.6.5-.3.7-1.5.4-2.8-.2-1.2-.5-3-.5-4 .1-3-3.8-9.5-7.5-12.6-6.4-5.2-15.8-6.5-23.1-3zm51.3 20.3c-7.7 4-12.4 12.4-11.7 20.6.2 1.4.3 3.5.4 4.7.1 1.3.6 2.3 1 2.3s.8.7.8 1.5c0 2 5.8 7.8 10 10 2.3 1.2 5.6 1.9 9.5 1.9 22.6 0 30.4-28.5 11.1-40.8-1.9-1.2-5.5-2.1-9.5-2.3-5.6-.4-7.3-.1-11.6 2.1zm-103.5.7c-5.6 2.5-10.7 8.1-11.8 12.8-.9 4-.8 13.1.1 13.1.6 0 .8.3.4.6-.9 1 1.8 5.7 5.3 9.1 4.2 4.1 9.9 6.2 16.2 5.9 12.4-.6 21.3-10.5 20.9-23.1-.1-4.9-3.3-11.6-7.2-14.8-6.8-5.9-15.9-7.3-23.9-3.6zm-17.3 50.1c-4.2.9-8.1 3.1-11.5 6.6-2.8 2.9-5.3 7.7-4.5 8.6.4.3.2.6-.4.6-1.6 0-.7 11.4 1.2 15 4.1 8 13.4 13.2 22 12.3 14.8-1.4 24.1-17.2 17.8-30.5-4.8-10.1-14.2-14.9-24.6-12.6zm146.3.8c-9.4 3.2-14.9 11.1-14.6 21 .4 9.7 5.3 16.6 14.2 19.9 5 1.8 7.1 2 13.5.7 4-.7 12.9-7.8 12.9-10.2 0-.8.4-1.4.8-1.4 1 0 1-.3 1.8-7.7 1.7-15.8-13.3-27.5-28.6-22.3zm-74.6 6.4c-3.6 1.6-9.6 8.6-9 10.3.3.7.1 1.5-.3 1.8-.5.3-.8 2-.6 3.8 1 11.2 11.8 18.4 22.2 14.9 12.2-4 15.1-20.4 5-28.6-4.4-3.5-12.2-4.5-17.3-2.2zm13.1 7.9c1.9 1.6 2.8 3.4 3.1 6.5.3 3.7 0 4.7-2.6 7.2-3.6 3.5-7.7 3.9-12.1 1.3-1.6-1-2.9-2-3-2.3-.1-.9-.7-3.5-1-4.5-.1-.6 0-2.4.4-4 1.5-6.1 10.3-8.5 15.2-4.2zm40.2 37.2c-9.3 3.2-15.4 12-14.8 21.5.2 2.6.8 6.3 1.1 6.7.2.2.3.7.4 1.2 0 .5 1.6 2.7 3.4 5 10.1 12.6 30.6 9.9 37-4.7 6-14-3.6-29.9-18.8-30.8-2.5-.1-6.2.4-8.3 1.1zm-106.3 2c-5.5 2.4-10 7.4-12 13.2-1.5 4.2-1 12.9.8 15 .7.9 1.3 1.9 1.2 2.2-.1.3 1 2 2.3 3.8 4.7 6.2 16.2 9.2 23.8 6.3 4.3-1.6 10.6-6.1 9.9-7.1-.3-.5-.1-.9.4-.9s1.4-1.2 2.1-2.8c8.8-19-9.6-38.1-28.5-29.7zM217 224c-10.6 3.1-17.1 11.9-16.5 22.5 1.1 17.8 20.9 26.9 35.2 16.1 4.2-3.1 9.1-11.5 7.9-13.4-.3-.6-.3-1.3.2-1.6 1.3-.8.6-6.5-1.4-11-4.2-9.5-16-15.4-25.4-12.6zm-138.5 4.7-7 5.3-.1 7c-.2 8.2 0 8.2 8.8-.3 4.9-4.8 5.7-6.1 6-9.9.7-7.7 0-7.9-7.7-2.1zm-18 11c-2.8 1.4-6.8 3.2-9 3.8l-4 1.2-.1 9.2c-.1 10.7-.6 10.6 11.3 3.4l7.3-4.4v-8c0-4.3-.1-7.9-.3-7.9-.1 0-2.5 1.2-5.2 2.7zm-26 9.4c-5.7 1.8-10.5 2.7-15.1 2.8-1.9.1-2.1.8-2.2 9.1l-.2 8.9 5.2-.4c6-.6 8.4-1 14.8-2.6l4.5-1.1-.2-9.1c-.1-4.9-.4-9.1-.5-9.2-.2-.1-3 .6-6.3 1.6z"/></svg>