<?xml version="1.0" standalone="no"?>
<!DOCTYPE svg PUBLIC "-//W3C//DTD SVG 20010904//EN"
 "http://www.w3.org/TR/2001/REC-SVG-20010904/DTD/svg10.dtd">
<svg version="1.0" xmlns="http://www.w3.org/2000/svg"
 width="342.000000pt" height="342.000000pt" viewBox="0 0 342.000000 342.000000"
 preserveAspectRatio="xMidYMid meet">
<metadata>
Created by potrace 1.14, written by Peter Selinger 2001-2017
</metadata>
<g transform="translate(0.000000,342.000000) scale(0.100000,-0.100000)"
fill="#000000" stroke="none">
<path d="M2130 2814 c-88 -12 -177 -30 -230 -46 -83 -26 -267 -113 -290 -138
-3 -3 -21 -17 -40 -30 -38 -27 -44 -32 -118 -102 -27 -27 -48 -48 -46 -48 2 0
-9 -14 -26 -32 -66 -68 -186 -281 -194 -343 -1 -5 -5 -15 -8 -21 -4 -6 -9 -21
-11 -35 -3 -13 -10 -42 -16 -64 -11 -41 -24 -133 -25 -172 0 -13 -4 -23 -10
-23 -5 0 -7 -3 -3 -6 18 -18 -117 -290 -157 -316 -6 -4 -8 -8 -4 -8 8 0 -80
-97 -130 -144 -152 -140 -400 -253 -599 -273 -28 -2 -76 -5 -107 -6 -48 -2
-56 -5 -57 -22 -5 -82 -3 -343 3 -356 7 -17 48 -18 163 -4 280 32 557 187 725
405 19 25 40 51 47 58 6 6 15 21 18 32 3 11 11 20 16 20 6 0 8 4 4 9 -3 5 -1
13 5 16 15 9 77 145 96 211 9 31 17 54 19 52 2 -2 14 -32 28 -68 54 -144 102
-229 188 -335 136 -168 296 -280 504 -352 375 -129 813 -32 1101 245 188 180
285 365 337 639 8 40 10 70 5 67 -4 -3 -4 5 0 18 7 19 8 142 2 158 -1 3 -3 23
-4 45 -2 22 -9 67 -16 100 -8 33 -14 63 -14 67 -1 3 -4 10 -8 14 -5 4 -8 16
-8 26 0 10 -4 26 -9 36 -17 34 -44 97 -47 108 -1 6 -14 29 -28 52 -14 23 -26
44 -26 48 0 3 -6 12 -12 19 -29 33 -38 45 -33 45 3 0 -3 10 -15 23 -11 12 -46
51 -77 85 -137 153 -371 285 -567 323 -28 5 -64 12 -81 15 -30 6 -217 12 -245
8z m240 -79 c126 -18 275 -72 385 -138 159 -96 310 -261 392 -427 32 -65 80
-203 77 -223 -1 -9 1 -17 6 -17 4 0 7 -14 6 -31 -1 -16 1 -32 5 -34 7 -5 12
-71 10 -165 -1 -60 -8 -145 -11 -145 -1 0 -3 -13 -5 -30 -2 -16 -7 -41 -11
-55 -4 -14 -8 -28 -9 -32 -2 -5 -3 -9 -4 -10 -2 -2 -4 -13 -7 -26 -2 -13 -10
-33 -16 -45 -7 -12 -11 -28 -10 -34 2 -7 -2 -13 -8 -13 -5 0 -10 -6 -10 -13 0
-19 -24 -67 -33 -67 -5 0 -5 -4 -2 -10 3 -5 1 -10 -5 -10 -6 0 -9 -4 -6 -9 4
-5 3 -11 -1 -13 -5 -1 -26 -30 -48 -63 -44 -65 -147 -173 -210 -220 -22 -17
-45 -35 -52 -41 -21 -20 -186 -101 -248 -122 -96 -33 -220 -52 -342 -53 -62 0
-116 2 -120 4 -5 3 -30 8 -58 11 -71 10 -217 60 -294 102 -186 101 -348 269
-444 459 -23 47 -55 130 -62 165 -2 8 -4 16 -5 18 -4 4 -20 85 -27 132 -14 94
-4 292 18 375 6 22 12 45 13 50 1 6 7 24 13 40 6 17 15 39 19 50 4 11 8 22 9
25 6 23 83 157 117 205 41 57 163 179 212 212 22 15 46 33 53 40 29 27 225
115 298 133 140 35 287 44 415 25z m-1274 -1242 c-2 -16 -5 -28 -6 -28 -1 0
-4 -13 -6 -30 -3 -16 -9 -34 -15 -39 -5 -6 -9 -16 -9 -24 0 -24 -66 -156 -114
-229 -47 -71 -186 -223 -204 -223 -6 0 -12 -4 -14 -8 -15 -39 -253 -161 -374
-191 -113 -29 -224 -38 -225 -20 -1 17 -1 198 0 220 1 12 14 16 54 18 28 1 70
6 92 11 22 5 56 12 75 15 128 22 326 115 445 208 85 66 133 114 225 226 8 11
29 42 45 70 17 28 31 51 33 51 1 0 1 -12 -2 -27z"/>
<path d="M2132 2639 c-59 -28 -105 -80 -119 -132 -10 -38 -5 -132 9 -158 55
-106 170 -153 277 -114 48 18 114 72 105 87 -3 4 -1 8 4 8 13 0 35 56 28 69
-4 5 -2 12 3 16 5 3 7 15 4 28 -2 12 -5 30 -5 40 1 30 -38 95 -75 126 -64 52
-158 65 -231 30z"/>
<path d="M2645 2436 c-77 -40 -124 -124 -117 -206 2 -14 3 -35 4 -47 1 -13 6
-23 10 -23 4 0 8 -7 8 -15 0 -20 58 -78 100 -100 23 -12 56 -19 95 -19 226 0
304 285 111 408 -19 12 -55 21 -95 23 -56 4 -73 1 -116 -21z"/>
<path d="M1610 2429 c-56 -25 -107 -81 -118 -128 -9 -40 -8 -131 1 -131 6 0 8
-3 4 -6 -9 -10 18 -57 53 -91 42 -41 99 -62 162 -59 124 6 213 105 209 231 -1
49 -33 116 -72 148 -68 59 -159 73 -239 36z"/>
<path d="M1437 1928 c-42 -9 -81 -31 -115 -66 -28 -29 -53 -77 -45 -86 4 -3 2
-6 -4 -6 -16 0 -7 -114 12 -150 41 -80 134 -132 220 -123 148 14 241 172 178
305 -48 101 -142 149 -246 126z"/>
<path d="M2900 1920 c-94 -32 -149 -111 -146 -210 4 -97 53 -166 142 -199 50
-18 71 -20 135 -7 40 7 129 78 129 102 0 8 4 14 8 14 10 0 10 3 18 77 17 158
-133 275 -286 223z"/>
<path d="M2154 1856 c-36 -16 -96 -86 -90 -103 3 -7 1 -15 -3 -18 -5 -3 -8
-20 -6 -38 10 -112 118 -184 222 -149 122 40 151 204 50 286 -44 35 -122 45
-173 22z m131 -79 c19 -16 28 -34 31 -65 3 -37 0 -47 -26 -72 -36 -35 -77 -39
-121 -13 -16 10 -29 20 -30 23 -1 9 -7 35 -10 45 -1 6 0 24 4 40 15 61 103 85
152 42z"/>
<path d="M2687 1405 c-93 -32 -154 -120 -148 -215 2 -26 8 -63 11 -67 2 -2 3
-7 4 -12 0 -5 16 -27 34 -50 101 -126 306 -99 370 47 60 140 -36 299 -188 308
-25 1 -62 -4 -83 -11z"/>
<path d="M1624 1385 c-55 -24 -100 -74 -120 -132 -15 -42 -10 -129 8 -150 7
-9 13 -19 12 -22 -1 -3 10 -20 23 -38 47 -62 162 -92 238 -63 43 16 106 61 99
71 -3 5 -1 9 4 9 5 0 14 12 21 28 88 190 -96 381 -285 297z"/>
<path d="M2170 1180 c-106 -31 -171 -119 -165 -225 11 -178 209 -269 352 -161
42 31 91 115 79 134 -3 6 -3 13 2 16 13 8 6 65 -14 110 -42 95 -160 154 -254
126z"/>
<path d="M785 1133 l-70 -53 -1 -70 c-2 -82 0 -82 88 3 49 48 57 61 60 99 7
77 0 79 -77 21z"/>
<path d="M605 1023 c-28 -14 -68 -32 -90 -38 l-40 -12 -1 -92 c-1 -107 -6
-106 113 -34 l73 44 0 80 c0 43 -1 79 -3 79 -1 0 -25 -12 -52 -27z"/>
<path d="M345 929 c-57 -18 -105 -27 -151 -28 -19 -1 -21 -8 -22 -91 l-2 -89
52 4 c60 6 84 10 148 26 l45 11 -2 91 c-1 49 -4 91 -5 92 -2 1 -30 -6 -63 -16z"/>
</g>
</svg>
